<svg id="Capa_1" enable-background="new 0 0 512 512" height="512" viewBox="0 0 512 512" width="512" xmlns="http://www.w3.org/2000/svg"><g><g><circle cx="256" cy="256" fill="#b6c4cf" r="248.5"/><path d="m366.399 33.328c26.891 39.707 42.601 87.604 42.601 139.172 0 137.243-111.257 248.5-248.5 248.5-39.658 0-77.138-9.306-110.399-25.829 44.678 65.97 120.224 109.329 205.899 109.329 137.243 0 248.5-111.257 248.5-248.5 0-97.584-56.258-182.016-138.101-222.672z" fill="#8d9ca8"/><circle cx="256" cy="256" fill="#f5f8f9" r="216.385"/><path d="m395.028 90.2c9.039 25.76 13.972 53.452 13.972 82.3 0 137.243-111.257 248.5-248.5 248.5-17.224 0-34.037-1.755-50.274-5.091 38.459 35.08 89.617 56.475 145.774 56.475 119.506 0 216.385-96.879 216.385-216.385 0-66.568-30.07-126.105-77.357-165.799z" fill="#e8edf2"/><path d="m334.813 153.618c.044-7.961-6.278-14.452-14.121-14.497-7.888-.058-14.237 6.373-14.281 14.334l-.209 54.738-99.874-.452.206-54.124c.044-7.961-6.396-13.925-14.239-13.97-7.835-.058-14.118 5.847-14.162 13.808l-.947 204.927c-.044 7.961 6.278 14.451 14.121 14.496h.082c7.805 0 14.155-6.401 14.199-14.335l.214-55.66 99.874.452-.211 55.047c-.044 7.961 6.278 14.451 14.121 14.496h.082c7.805 0 14.155-6.401 14.199-14.335zm-128.851 120.435.207-37.48 99.874.452-.207 37.48z" fill="#b6c4cf"/></g><g><path d="m191.265 380.379h.124c11.898 0 21.633-9.776 21.699-21.806l.185-48.156 84.876.384-.183 47.54c-.066 12.083 9.612 21.969 21.577 22.038h.125c11.898 0 21.633-9.776 21.699-21.804l.946-204.917c.066-12.083-9.613-21.969-21.566-22.038-5.782-.018-11.198 2.169-15.307 6.225-4.177 4.124-6.495 9.653-6.528 15.581l-.181 47.233-84.874-.384.177-46.617c.066-11.992-9.464-21.441-21.684-21.512-5.894-.01-11.365 2.148-15.44 6.17-4.016 3.964-6.245 9.325-6.277 15.106l-.946 204.917c-.067 12.085 9.613 21.971 21.578 22.04zm-5.632-226.881c.013-2.255.994-3.694 1.815-4.505 1.22-1.205 2.917-1.897 4.805-1.846 3.886.022 6.802 2.786 6.781 6.442l-.205 54.124c-.016 4.14 3.326 7.509 7.466 7.528l99.874.452c1.951-.014 3.902-.773 5.315-2.175 1.413-1.401 2.211-3.307 2.219-5.296l.209-54.726c.011-1.904.744-3.671 2.066-4.977 1.254-1.238 2.908-1.903 4.671-1.899 3.695.021 6.686 3.141 6.664 6.96l-.946 204.921c-.021 3.792-3.026 6.876-6.738 6.876-3.695-.021-6.685-3.142-6.663-6.968l.211-55.047c.016-4.14-3.326-7.51-7.466-7.529l-99.875-.452c-.012 0-.022 0-.034 0-1.978 0-3.876.781-5.281 2.174-1.413 1.401-2.211 3.307-2.219 5.297l-.214 55.648c-.021 3.792-3.026 6.876-6.737 6.876-3.695-.021-6.686-3.142-6.664-6.96z"/><path d="m205.928 281.553 99.874.452h.035c4.123 0 7.477-3.331 7.499-7.458l.207-37.48c.011-1.99-.77-3.904-2.17-5.318-1.4-1.415-3.306-2.214-5.296-2.224l-99.874-.452c-.012 0-.023 0-.035 0-4.123 0-7.477 3.331-7.499 7.458l-.207 37.48c-.011 1.99.77 3.904 2.17 5.318 1.4 1.415 3.306 2.214 5.296 2.224zm7.7-37.447 84.874.384-.125 22.48-84.874-.384z"/><path d="m484.783 141.015c-17.219-34.195-42.406-64.643-72.839-88.051-3.283-2.526-7.993-1.911-10.517 1.372-2.526 3.283-1.911 7.992 1.372 10.518 28.657 22.043 52.374 50.712 68.586 82.907 16.997 33.752 25.615 70.169 25.615 108.239 0 64.374-25.068 124.894-70.587 170.413s-106.039 70.587-170.413 70.587-124.894-25.068-170.413-70.587-70.587-106.039-70.587-170.413 25.068-124.894 70.587-170.413 106.039-70.587 170.413-70.587c42.909 0 85.036 11.416 121.827 33.013 3.571 2.098 8.168.901 10.265-2.671s.901-8.168-2.671-10.265c-39.092-22.948-83.845-35.077-129.421-35.077-68.38 0-132.668 26.629-181.02 74.98-48.351 48.353-74.98 112.64-74.98 181.02s26.629 132.667 74.98 181.02c48.352 48.351 112.64 74.98 181.02 74.98s132.668-26.629 181.02-74.98c48.351-48.353 74.98-112.64 74.98-181.02 0-40.435-9.157-79.121-27.217-114.985z"/><path d="m83.173 373.356c-2.331-3.423-6.996-4.313-10.42-1.981-3.425 2.33-4.313 6.995-1.982 10.42 41.793 61.421 111.037 98.09 185.229 98.09 59.802 0 116.024-23.288 158.311-65.574 42.286-42.287 65.574-98.509 65.574-158.311s-23.288-116.024-65.574-158.311c-42.287-42.286-98.509-65.574-158.311-65.574s-116.024 23.288-158.311 65.574c-42.286 42.287-65.574 98.509-65.574 158.311 0 34.301 7.556 67.219 22.456 97.842 1.813 3.724 6.299 5.275 10.025 3.462 3.725-1.813 5.275-6.301 3.463-10.026-13.897-28.56-20.944-59.271-20.944-91.278 0-115.179 93.705-208.885 208.885-208.885s208.885 93.706 208.885 208.885-93.705 208.885-208.885 208.885c-69.223 0-133.831-34.217-172.827-91.529z"/></g></g></svg>